<?xml version="1.0" encoding="utf-8"?>
<!-- Generator: Adobe Illustrator 25.0.1, SVG Export Plug-In . SVG Version: 6.00 Build 0)  -->
<svg version="1.1" id="Capa_1" xmlns="http://www.w3.org/2000/svg" xmlns:xlink="http://www.w3.org/1999/xlink" x="0px" y="0px"
	 viewBox="0 0 512 512" style="enable-background:new 0 0 512 512;" xml:space="preserve">
<g>
	<g>
		<path d="M20,215.9c0,65.7,29.2,126.7,80.2,167.9v120.7c0,4.2,3.4,7.5,7.5,7.5s7.5-3.4,7.5-7.5V380.2c0-2.3-1.1-4.5-2.9-5.9
			c-49.1-38.4-77.3-96.1-77.3-158.4C35.1,105.1,125.2,15,236,15s200.9,90.1,200.9,200.9c0,1.2,0.3,2.3,0.8,3.4l37,73.9l-34.1,20.5
			c-2.3,1.4-3.6,3.8-3.6,6.4v112.7h-72.6c-4.2,0-7.5,3.4-7.5,7.5v64.1c0,4.2,3.4,7.5,7.5,7.5s7.5-3.4,7.5-7.5v-56.6h72.6
			c4.2,0,7.5-3.4,7.5-7.5v-116l36.4-21.9c3.4-2,4.6-6.3,2.9-9.8l-39.3-78.6c-0.5-57-22.9-110.5-63.2-150.9C347.9,22.5,293.6,0,236,0
			S124.1,22.5,83.3,63.2S20,158.2,20,215.9z"/>
	</g>
</g>
<g>
	<g>
		<path d="M381,200.3c-0.1-2.4-1.4-4.6-3.4-5.9c-12.5-8.1-26.6-13-41.1-14.7c-1.7-14.6-6.8-28.8-14.8-41.2c-1.3-2-3.5-3.3-5.9-3.4
			c-14.7-0.8-29.4,1.9-42.9,7.7c-8.6-11.6-19.9-21.3-33.4-28.2c-2.1-1.1-4.7-1.1-6.8,0c-13.5,6.9-24.8,16.6-33.4,28.2
			c-13.5-5.8-28.3-8.5-42.9-7.8c-2.4,0.1-4.6,1.4-5.9,3.4c-8,12.4-13.1,26.5-14.8,41.1c-14.4,1.7-28.5,6.6-41.1,14.7
			c-2,1.3-3.3,3.5-3.4,5.9c-1.8,36.1,16.4,69.8,47.7,87.8c14.9,8.6,31.4,12.9,47.9,12.9c17.1,0,34.1-4.6,49.4-13.8
			c15,9,32.1,13.7,49.4,13.7c4.5,0,9-0.3,13.6-1c4.1-0.6,7-4.4,6.4-8.5c-0.6-4.1-4.4-7-8.5-6.4c-15.7,2.2-31.7-0.2-45.9-6.9
			c24.9-17.5,40.1-45.8,40.6-76.7c23.8-11,51.8-9.7,74.5,3.5c0.1,29-15.1,55.6-40.3,70.1c-3.3,1.9-4.6,6.1-3.1,9.5
			c1.8,4,6.8,5.7,10.6,3.5C364.5,270.1,382.8,236.4,381,200.3z M161,150c0.1,0,0.1,0,0.2,0c10.2,0,20.5,2,30,5.8
			c-4.8,9.2-8.1,19.3-9.6,29.8c-9.9-3.9-20.2-6-30.7-6.5C152.3,168.9,155.8,159,161,150z M146.3,275.1
			c-25.2-14.6-40.5-41.2-40.3-70.1c22.7-13.2,50.7-14.5,74.5-3.5c0.5,31,15.7,59.3,40.6,76.7C197.3,289.5,169.5,288.5,146.3,275.1z
			 M236,269.9c-25.1-14.4-40.6-40.9-40.6-70s15.5-55.6,40.6-70c25.1,14.4,40.6,40.9,40.6,70C276.6,229,261.2,255.5,236,269.9z
			 M290.6,185.6c-1.6-10.5-4.9-20.6-9.6-29.8c9.5-3.8,19.8-5.8,30-5.8c0.1,0,0.1,0,0.2,0c5.2,9,8.6,18.9,10.1,29.2
			C310.8,179.6,300.4,181.7,290.6,185.6z"/>
	</g>
</g>
<g>
	<g>
		<path d="M237,88.2h-1c-4.2,0-7.5,3.4-7.5,7.5s3.4,7.5,7.5,7.5h1c4.2,0,7.5-3.4,7.5-7.5S241.2,88.2,237,88.2z"/>
	</g>
</g>
<g>
	<g>
		<path d="M333.2,112.2h-1c-4.2,0-7.5,3.4-7.5,7.5s3.4,7.5,7.5,7.5h1c4.2,0,7.5-3.4,7.5-7.5C340.7,115.6,337.4,112.2,333.2,112.2z"
			/>
	</g>
</g>
<g>
	<g>
		<path d="M148.9,112.2h-1c-4.2,0-7.5,3.4-7.5,7.5s3.4,7.5,7.5,7.5h1c4.2,0,7.5-3.4,7.5-7.5S153,112.2,148.9,112.2z"/>
	</g>
</g>
<g>
	<g>
		<path d="M188.9,96.2h-1c-4.2,0-7.5,3.4-7.5,7.5s3.4,7.5,7.5,7.5h1c4.2,0,7.5-3.4,7.5-7.5C196.5,99.6,193.1,96.2,188.9,96.2z"/>
	</g>
</g>
<g>
	<g>
		<path d="M285.1,96.2h-1c-4.2,0-7.5,3.4-7.5,7.5s3.4,7.5,7.5,7.5h1c4.2,0,7.5-3.4,7.5-7.5C292.6,99.6,289.3,96.2,285.1,96.2z"/>
	</g>
</g>
<g>
	<g>
		<path d="M216,367.7h56.1c15.2,0,27.6-12.4,27.6-27.6s-12.4-27.6-27.6-27.6h-92.2c-4.2,0-7.5,3.4-7.5,7.5s3.4,7.5,7.5,7.5h92.2
			c6.9,0,12.5,5.6,12.5,12.5s-5.6,12.5-12.5,12.5H216c-15.2,0-27.6,12.4-27.6,27.6s12.4,27.6,27.6,27.6h32.1
			c6.9,0,12.5,5.6,12.5,12.5s-5.6,12.5-12.5,12.5h-20c-4.2,0-7.5,3.4-7.5,7.5c0,4.1,3.4,7.5,7.5,7.5h20c15.2,0,27.6-12.4,27.6-27.6
			s-12.4-27.6-27.6-27.6H216c-6.9,0-12.5-5.6-12.5-12.5S209.1,367.7,216,367.7z"/>
	</g>
</g>
</svg>
